<mxfile host="app.diagrams.net" modified="2022-10-27T18:32:55.900Z" agent="5.0 (Windows)" etag="livyAmvKHZhj1WUTB8Xk" version="20.5.1" type="github">
  <diagram id="CjiaHMaBVddssaq4kyfS" name="Page-1">
    <mxGraphModel dx="1038" dy="1623" grid="1" gridSize="10" guides="1" tooltips="1" connect="1" arrows="1" fold="1" page="1" pageScale="1" pageWidth="850" pageHeight="1100" math="0" shadow="0">
      <root>
        <mxCell id="0" />
        <mxCell id="1" parent="0" />
        <mxCell id="xf_oXh0y7SjaSMI43Iii-91" style="edgeStyle=orthogonalEdgeStyle;rounded=0;orthogonalLoop=1;jettySize=auto;html=1;fontSize=10;" parent="1" source="xf_oXh0y7SjaSMI43Iii-6" target="xf_oXh0y7SjaSMI43Iii-10" edge="1">
          <mxGeometry relative="1" as="geometry">
            <Array as="points">
              <mxPoint x="283" y="350" />
            </Array>
          </mxGeometry>
        </mxCell>
        <mxCell id="xf_oXh0y7SjaSMI43Iii-92" value="1" style="edgeLabel;html=1;align=center;verticalAlign=middle;resizable=0;points=[];fontSize=10;" parent="xf_oXh0y7SjaSMI43Iii-91" vertex="1" connectable="0">
          <mxGeometry x="0.7216" y="-2" relative="1" as="geometry">
            <mxPoint x="8" y="-7" as="offset" />
          </mxGeometry>
        </mxCell>
        <mxCell id="xf_oXh0y7SjaSMI43Iii-93" value="1..n" style="edgeLabel;html=1;align=center;verticalAlign=bottom;resizable=0;points=[];fontSize=10;" parent="xf_oXh0y7SjaSMI43Iii-91" vertex="1" connectable="0">
          <mxGeometry x="-0.7846" relative="1" as="geometry">
            <mxPoint x="17" y="38" as="offset" />
          </mxGeometry>
        </mxCell>
        <mxCell id="xf_oXh0y7SjaSMI43Iii-94" value="&lt;font style=&quot;font-size: 12px;&quot;&gt;est découvert&amp;nbsp; à&lt;br&gt;&lt;/font&gt;" style="edgeLabel;html=1;align=center;verticalAlign=middle;resizable=0;points=[];fontSize=10;" parent="xf_oXh0y7SjaSMI43Iii-91" vertex="1" connectable="0">
          <mxGeometry x="-0.2907" relative="1" as="geometry">
            <mxPoint x="32" as="offset" />
          </mxGeometry>
        </mxCell>
        <mxCell id="xf_oXh0y7SjaSMI43Iii-6" value="Trouvailles" style="swimlane;fontStyle=0;childLayout=stackLayout;horizontal=1;startSize=30;horizontalStack=0;resizeParent=1;resizeParentMax=0;resizeLast=0;collapsible=1;marginBottom=0;fontSize=14;" parent="1" vertex="1">
          <mxGeometry x="220" y="660" width="140" height="120" as="geometry">
            <mxRectangle x="200" y="520" width="110" height="30" as="alternateBounds" />
          </mxGeometry>
        </mxCell>
        <mxCell id="xf_oXh0y7SjaSMI43Iii-7" value="contexte" style="text;strokeColor=none;fillColor=none;align=left;verticalAlign=middle;spacingLeft=4;spacingRight=4;overflow=hidden;points=[[0,0.5],[1,0.5]];portConstraint=eastwest;rotatable=0;fontSize=14;" parent="xf_oXh0y7SjaSMI43Iii-6" vertex="1">
          <mxGeometry y="30" width="140" height="30" as="geometry" />
        </mxCell>
        <mxCell id="xf_oXh0y7SjaSMI43Iii-8" value="Nature" style="text;strokeColor=none;fillColor=none;align=left;verticalAlign=middle;spacingLeft=4;spacingRight=4;overflow=hidden;points=[[0,0.5],[1,0.5]];portConstraint=eastwest;rotatable=0;fontSize=14;" parent="xf_oXh0y7SjaSMI43Iii-6" vertex="1">
          <mxGeometry y="60" width="140" height="30" as="geometry" />
        </mxCell>
        <mxCell id="xf_oXh0y7SjaSMI43Iii-178" value="date de découverte" style="text;strokeColor=none;fillColor=none;align=left;verticalAlign=middle;spacingLeft=4;spacingRight=4;overflow=hidden;points=[[0,0.5],[1,0.5]];portConstraint=eastwest;rotatable=0;fontSize=14;" parent="xf_oXh0y7SjaSMI43Iii-6" vertex="1">
          <mxGeometry y="90" width="140" height="30" as="geometry" />
        </mxCell>
        <mxCell id="xf_oXh0y7SjaSMI43Iii-10" value="Lieu" style="swimlane;fontStyle=0;childLayout=stackLayout;horizontal=1;startSize=30;horizontalStack=0;resizeParent=1;resizeParentMax=0;resizeLast=0;collapsible=1;marginBottom=0;fontSize=14;" parent="1" vertex="1">
          <mxGeometry x="320" y="240" width="140" height="150" as="geometry" />
        </mxCell>
        <mxCell id="xf_oXh0y7SjaSMI43Iii-11" value="Nom" style="text;strokeColor=none;fillColor=none;align=left;verticalAlign=middle;spacingLeft=4;spacingRight=4;overflow=hidden;points=[[0,0.5],[1,0.5]];portConstraint=eastwest;rotatable=0;fontSize=14;" parent="xf_oXh0y7SjaSMI43Iii-10" vertex="1">
          <mxGeometry y="30" width="140" height="30" as="geometry" />
        </mxCell>
        <mxCell id="xf_oXh0y7SjaSMI43Iii-12" value="définition" style="text;strokeColor=none;fillColor=none;align=left;verticalAlign=middle;spacingLeft=4;spacingRight=4;overflow=hidden;points=[[0,0.5],[1,0.5]];portConstraint=eastwest;rotatable=0;fontSize=14;" parent="xf_oXh0y7SjaSMI43Iii-10" vertex="1">
          <mxGeometry y="60" width="140" height="30" as="geometry" />
        </mxCell>
        <mxCell id="xf_oXh0y7SjaSMI43Iii-13" value="Coordonnées x" style="text;strokeColor=none;fillColor=none;align=left;verticalAlign=middle;spacingLeft=4;spacingRight=4;overflow=hidden;points=[[0,0.5],[1,0.5]];portConstraint=eastwest;rotatable=0;fontSize=14;" parent="xf_oXh0y7SjaSMI43Iii-10" vertex="1">
          <mxGeometry y="90" width="140" height="30" as="geometry" />
        </mxCell>
        <mxCell id="xf_oXh0y7SjaSMI43Iii-196" value="Coordonnées y" style="text;strokeColor=none;fillColor=none;align=left;verticalAlign=middle;spacingLeft=4;spacingRight=4;overflow=hidden;points=[[0,0.5],[1,0.5]];portConstraint=eastwest;rotatable=0;fontSize=14;" parent="xf_oXh0y7SjaSMI43Iii-10" vertex="1">
          <mxGeometry y="120" width="140" height="30" as="geometry" />
        </mxCell>
        <mxCell id="xf_oXh0y7SjaSMI43Iii-118" style="edgeStyle=orthogonalEdgeStyle;rounded=0;orthogonalLoop=1;jettySize=auto;html=1;fontSize=10;" parent="1" source="xf_oXh0y7SjaSMI43Iii-15" target="xf_oXh0y7SjaSMI43Iii-6" edge="1">
          <mxGeometry relative="1" as="geometry">
            <Array as="points">
              <mxPoint x="650" y="580" />
              <mxPoint x="350" y="580" />
            </Array>
          </mxGeometry>
        </mxCell>
        <mxCell id="xf_oXh0y7SjaSMI43Iii-161" value="trouve" style="edgeLabel;html=1;align=center;verticalAlign=middle;resizable=0;points=[];fontSize=12;" parent="xf_oXh0y7SjaSMI43Iii-118" vertex="1" connectable="0">
          <mxGeometry x="-0.109" y="2" relative="1" as="geometry">
            <mxPoint x="-7" y="-2" as="offset" />
          </mxGeometry>
        </mxCell>
        <mxCell id="xf_oXh0y7SjaSMI43Iii-174" value="1..n" style="edgeLabel;html=1;align=center;verticalAlign=middle;resizable=0;points=[];fontSize=12;" parent="xf_oXh0y7SjaSMI43Iii-118" vertex="1" connectable="0">
          <mxGeometry x="-0.9578" relative="1" as="geometry">
            <mxPoint x="10" as="offset" />
          </mxGeometry>
        </mxCell>
        <mxCell id="xf_oXh0y7SjaSMI43Iii-175" value="1" style="edgeLabel;html=1;align=center;verticalAlign=bottom;resizable=0;points=[];fontSize=12;" parent="xf_oXh0y7SjaSMI43Iii-118" vertex="1" connectable="0">
          <mxGeometry x="0.9503" y="1" relative="1" as="geometry">
            <mxPoint as="offset" />
          </mxGeometry>
        </mxCell>
        <mxCell id="xf_oXh0y7SjaSMI43Iii-145" style="edgeStyle=orthogonalEdgeStyle;rounded=0;orthogonalLoop=1;jettySize=auto;html=1;entryX=1;entryY=0.25;entryDx=0;entryDy=0;fontSize=12;exitX=0.75;exitY=1;exitDx=0;exitDy=0;" parent="1" source="xf_oXh0y7SjaSMI43Iii-15" target="xf_oXh0y7SjaSMI43Iii-140" edge="1">
          <mxGeometry relative="1" as="geometry">
            <mxPoint x="660" y="360" as="sourcePoint" />
          </mxGeometry>
        </mxCell>
        <mxCell id="xf_oXh0y7SjaSMI43Iii-148" value="écrit" style="edgeLabel;html=1;align=center;verticalAlign=middle;resizable=0;points=[];fontSize=12;" parent="xf_oXh0y7SjaSMI43Iii-145" vertex="1" connectable="0">
          <mxGeometry x="-0.0128" relative="1" as="geometry">
            <mxPoint as="offset" />
          </mxGeometry>
        </mxCell>
        <mxCell id="xf_oXh0y7SjaSMI43Iii-176" value="1..n" style="edgeLabel;html=1;align=center;verticalAlign=middle;resizable=0;points=[];fontSize=12;" parent="xf_oXh0y7SjaSMI43Iii-145" vertex="1" connectable="0">
          <mxGeometry x="-0.9522" y="2" relative="1" as="geometry">
            <mxPoint x="13" as="offset" />
          </mxGeometry>
        </mxCell>
        <mxCell id="xf_oXh0y7SjaSMI43Iii-177" value="1" style="edgeLabel;html=1;align=center;verticalAlign=bottom;resizable=0;points=[];fontSize=12;" parent="xf_oXh0y7SjaSMI43Iii-145" vertex="1" connectable="0">
          <mxGeometry x="0.9299" relative="1" as="geometry">
            <mxPoint x="1" as="offset" />
          </mxGeometry>
        </mxCell>
        <mxCell id="xf_oXh0y7SjaSMI43Iii-15" value="Personne" style="swimlane;fontStyle=0;childLayout=stackLayout;horizontal=1;startSize=30;horizontalStack=0;resizeParent=1;resizeParentMax=0;resizeLast=0;collapsible=1;marginBottom=0;fontSize=14;" parent="1" vertex="1">
          <mxGeometry x="630" y="220" width="140" height="120" as="geometry">
            <mxRectangle x="630" y="220" width="100" height="30" as="alternateBounds" />
          </mxGeometry>
        </mxCell>
        <mxCell id="xf_oXh0y7SjaSMI43Iii-16" value="Nom" style="text;strokeColor=none;fillColor=none;align=left;verticalAlign=middle;spacingLeft=4;spacingRight=4;overflow=hidden;points=[[0,0.5],[1,0.5]];portConstraint=eastwest;rotatable=0;fontSize=14;" parent="xf_oXh0y7SjaSMI43Iii-15" vertex="1">
          <mxGeometry y="30" width="140" height="30" as="geometry" />
        </mxCell>
        <mxCell id="xf_oXh0y7SjaSMI43Iii-47" value="définition" style="text;strokeColor=none;fillColor=none;align=left;verticalAlign=middle;spacingLeft=4;spacingRight=4;overflow=hidden;points=[[0,0.5],[1,0.5]];portConstraint=eastwest;rotatable=0;fontSize=14;" parent="xf_oXh0y7SjaSMI43Iii-15" vertex="1">
          <mxGeometry y="60" width="140" height="30" as="geometry" />
        </mxCell>
        <mxCell id="xf_oXh0y7SjaSMI43Iii-46" value="genre" style="text;strokeColor=none;fillColor=none;align=left;verticalAlign=middle;spacingLeft=4;spacingRight=4;overflow=hidden;points=[[0,0.5],[1,0.5]];portConstraint=eastwest;rotatable=0;fontSize=14;" parent="xf_oXh0y7SjaSMI43Iii-15" vertex="1">
          <mxGeometry y="90" width="140" height="30" as="geometry" />
        </mxCell>
        <mxCell id="xf_oXh0y7SjaSMI43Iii-19" value="Occupation" style="swimlane;fontStyle=0;childLayout=stackLayout;horizontal=1;startSize=30;horizontalStack=0;resizeParent=1;resizeParentMax=0;resizeLast=0;collapsible=1;marginBottom=0;fontSize=14;" parent="1" vertex="1">
          <mxGeometry x="1030" y="260" width="140" height="60" as="geometry" />
        </mxCell>
        <mxCell id="xf_oXh0y7SjaSMI43Iii-21" value="définition" style="text;strokeColor=none;fillColor=none;align=left;verticalAlign=middle;spacingLeft=4;spacingRight=4;overflow=hidden;points=[[0,0.5],[1,0.5]];portConstraint=eastwest;rotatable=0;fontSize=14;" parent="xf_oXh0y7SjaSMI43Iii-19" vertex="1">
          <mxGeometry y="30" width="140" height="30" as="geometry" />
        </mxCell>
        <mxCell id="xf_oXh0y7SjaSMI43Iii-102" style="edgeStyle=orthogonalEdgeStyle;rounded=0;orthogonalLoop=1;jettySize=auto;html=1;fontSize=12;exitX=0.5;exitY=1;exitDx=0;exitDy=0;entryX=0;entryY=0.222;entryDx=0;entryDy=0;entryPerimeter=0;" parent="1" source="xf_oXh0y7SjaSMI43Iii-24" target="xf_oXh0y7SjaSMI43Iii-6" edge="1">
          <mxGeometry relative="1" as="geometry">
            <mxPoint x="190" y="580" as="targetPoint" />
            <Array as="points">
              <mxPoint x="110" y="687" />
            </Array>
          </mxGeometry>
        </mxCell>
        <mxCell id="xf_oXh0y7SjaSMI43Iii-104" value="constituent" style="edgeLabel;html=1;align=center;verticalAlign=middle;resizable=0;points=[];fontSize=12;" parent="xf_oXh0y7SjaSMI43Iii-102" vertex="1" connectable="0">
          <mxGeometry x="-0.1279" y="2" relative="1" as="geometry">
            <mxPoint as="offset" />
          </mxGeometry>
        </mxCell>
        <mxCell id="xf_oXh0y7SjaSMI43Iii-105" value="&lt;font style=&quot;font-size: 10px;&quot;&gt;1&lt;/font&gt;..n" style="edgeLabel;html=1;align=center;verticalAlign=bottom;resizable=0;points=[];fontSize=12;" parent="xf_oXh0y7SjaSMI43Iii-102" vertex="1" connectable="0">
          <mxGeometry x="-0.9228" relative="1" as="geometry">
            <mxPoint x="10" y="12" as="offset" />
          </mxGeometry>
        </mxCell>
        <mxCell id="xf_oXh0y7SjaSMI43Iii-106" value="1" style="edgeLabel;html=1;align=center;verticalAlign=bottom;resizable=0;points=[];fontSize=10;" parent="xf_oXh0y7SjaSMI43Iii-102" vertex="1" connectable="0">
          <mxGeometry x="0.9327" y="-1" relative="1" as="geometry">
            <mxPoint x="-3" y="-1" as="offset" />
          </mxGeometry>
        </mxCell>
        <mxCell id="xf_oXh0y7SjaSMI43Iii-209" style="edgeStyle=orthogonalEdgeStyle;rounded=0;orthogonalLoop=1;jettySize=auto;html=1;fontSize=12;" parent="1" source="xf_oXh0y7SjaSMI43Iii-24" target="xf_oXh0y7SjaSMI43Iii-10" edge="1">
          <mxGeometry relative="1" as="geometry">
            <Array as="points">
              <mxPoint x="270" y="290" />
              <mxPoint x="270" y="290" />
            </Array>
          </mxGeometry>
        </mxCell>
        <mxCell id="xf_oXh0y7SjaSMI43Iii-210" value="conservé à" style="edgeLabel;html=1;align=center;verticalAlign=middle;resizable=0;points=[];fontSize=12;" parent="xf_oXh0y7SjaSMI43Iii-209" vertex="1" connectable="0">
          <mxGeometry x="-0.132" relative="1" as="geometry">
            <mxPoint as="offset" />
          </mxGeometry>
        </mxCell>
        <mxCell id="xf_oXh0y7SjaSMI43Iii-211" value="1" style="edgeLabel;html=1;align=center;verticalAlign=middle;resizable=0;points=[];fontSize=12;" parent="xf_oXh0y7SjaSMI43Iii-209" vertex="1" connectable="0">
          <mxGeometry x="0.8748" y="-1" relative="1" as="geometry">
            <mxPoint y="-11" as="offset" />
          </mxGeometry>
        </mxCell>
        <mxCell id="xf_oXh0y7SjaSMI43Iii-212" value="0..n" style="edgeLabel;html=1;align=center;verticalAlign=middle;resizable=0;points=[];fontSize=12;" parent="xf_oXh0y7SjaSMI43Iii-209" vertex="1" connectable="0">
          <mxGeometry x="-0.8667" relative="1" as="geometry">
            <mxPoint y="-10" as="offset" />
          </mxGeometry>
        </mxCell>
        <mxCell id="xf_oXh0y7SjaSMI43Iii-24" value="Monnaie" style="swimlane;fontStyle=0;childLayout=stackLayout;horizontal=1;startSize=30;horizontalStack=0;resizeParent=1;resizeParentMax=0;resizeLast=0;collapsible=1;marginBottom=0;fontSize=14;" parent="1" vertex="1">
          <mxGeometry x="40" y="240" width="140" height="420" as="geometry">
            <mxRectangle x="40" y="240" width="100" height="30" as="alternateBounds" />
          </mxGeometry>
        </mxCell>
        <mxCell id="xf_oXh0y7SjaSMI43Iii-25" value="Inscription avers" style="text;strokeColor=none;fillColor=none;align=left;verticalAlign=middle;spacingLeft=4;spacingRight=4;overflow=hidden;points=[[0,0.5],[1,0.5]];portConstraint=eastwest;rotatable=0;fontSize=14;" parent="xf_oXh0y7SjaSMI43Iii-24" vertex="1">
          <mxGeometry y="30" width="140" height="30" as="geometry" />
        </mxCell>
        <mxCell id="xf_oXh0y7SjaSMI43Iii-226" value="inscription revers" style="text;strokeColor=none;fillColor=none;align=left;verticalAlign=middle;spacingLeft=4;spacingRight=4;overflow=hidden;points=[[0,0.5],[1,0.5]];portConstraint=eastwest;rotatable=0;fontSize=14;" parent="xf_oXh0y7SjaSMI43Iii-24" vertex="1">
          <mxGeometry y="60" width="140" height="30" as="geometry" />
        </mxCell>
        <mxCell id="xf_oXh0y7SjaSMI43Iii-26" value="décoration avers" style="text;strokeColor=none;fillColor=none;align=left;verticalAlign=middle;spacingLeft=4;spacingRight=4;overflow=hidden;points=[[0,0.5],[1,0.5]];portConstraint=eastwest;rotatable=0;fontSize=14;" parent="xf_oXh0y7SjaSMI43Iii-24" vertex="1">
          <mxGeometry y="90" width="140" height="30" as="geometry" />
        </mxCell>
        <mxCell id="xf_oXh0y7SjaSMI43Iii-27" value="décoration revers" style="text;strokeColor=none;fillColor=none;align=left;verticalAlign=middle;spacingLeft=4;spacingRight=4;overflow=hidden;points=[[0,0.5],[1,0.5]];portConstraint=eastwest;rotatable=0;fontSize=14;" parent="xf_oXh0y7SjaSMI43Iii-24" vertex="1">
          <mxGeometry y="120" width="140" height="30" as="geometry" />
        </mxCell>
        <mxCell id="xf_oXh0y7SjaSMI43Iii-40" value="production" style="text;strokeColor=none;fillColor=none;align=left;verticalAlign=middle;spacingLeft=4;spacingRight=4;overflow=hidden;points=[[0,0.5],[1,0.5]];portConstraint=eastwest;rotatable=0;fontSize=14;" parent="xf_oXh0y7SjaSMI43Iii-24" vertex="1">
          <mxGeometry y="150" width="140" height="30" as="geometry" />
        </mxCell>
        <mxCell id="xf_oXh0y7SjaSMI43Iii-41" value="défaut" style="text;strokeColor=none;fillColor=none;align=left;verticalAlign=middle;spacingLeft=4;spacingRight=4;overflow=hidden;points=[[0,0.5],[1,0.5]];portConstraint=eastwest;rotatable=0;fontSize=14;" parent="xf_oXh0y7SjaSMI43Iii-24" vertex="1">
          <mxGeometry y="180" width="140" height="30" as="geometry" />
        </mxCell>
        <mxCell id="xf_oXh0y7SjaSMI43Iii-227" value="matière" style="text;strokeColor=none;fillColor=none;align=left;verticalAlign=middle;spacingLeft=4;spacingRight=4;overflow=hidden;points=[[0,0.5],[1,0.5]];portConstraint=eastwest;rotatable=0;fontSize=14;" parent="xf_oXh0y7SjaSMI43Iii-24" vertex="1">
          <mxGeometry y="210" width="140" height="30" as="geometry" />
        </mxCell>
        <mxCell id="xf_oXh0y7SjaSMI43Iii-228" value="poids" style="text;strokeColor=none;fillColor=none;align=left;verticalAlign=middle;spacingLeft=4;spacingRight=4;overflow=hidden;points=[[0,0.5],[1,0.5]];portConstraint=eastwest;rotatable=0;fontSize=14;" parent="xf_oXh0y7SjaSMI43Iii-24" vertex="1">
          <mxGeometry y="240" width="140" height="30" as="geometry" />
        </mxCell>
        <mxCell id="xf_oXh0y7SjaSMI43Iii-229" value="dimension x" style="text;strokeColor=none;fillColor=none;align=left;verticalAlign=middle;spacingLeft=4;spacingRight=4;overflow=hidden;points=[[0,0.5],[1,0.5]];portConstraint=eastwest;rotatable=0;fontSize=14;" parent="xf_oXh0y7SjaSMI43Iii-24" vertex="1">
          <mxGeometry y="270" width="140" height="30" as="geometry" />
        </mxCell>
        <mxCell id="xf_oXh0y7SjaSMI43Iii-230" value="dimension y" style="text;strokeColor=none;fillColor=none;align=left;verticalAlign=middle;spacingLeft=4;spacingRight=4;overflow=hidden;points=[[0,0.5],[1,0.5]];portConstraint=eastwest;rotatable=0;fontSize=14;" parent="xf_oXh0y7SjaSMI43Iii-24" vertex="1">
          <mxGeometry y="300" width="140" height="30" as="geometry" />
        </mxCell>
        <mxCell id="xf_oXh0y7SjaSMI43Iii-231" value="détérioration" style="text;strokeColor=none;fillColor=none;align=left;verticalAlign=middle;spacingLeft=4;spacingRight=4;overflow=hidden;points=[[0,0.5],[1,0.5]];portConstraint=eastwest;rotatable=0;fontSize=14;" parent="xf_oXh0y7SjaSMI43Iii-24" vertex="1">
          <mxGeometry y="330" width="140" height="30" as="geometry" />
        </mxCell>
        <mxCell id="xf_oXh0y7SjaSMI43Iii-232" value="forme" style="text;strokeColor=none;fillColor=none;align=left;verticalAlign=middle;spacingLeft=4;spacingRight=4;overflow=hidden;points=[[0,0.5],[1,0.5]];portConstraint=eastwest;rotatable=0;fontSize=14;" parent="xf_oXh0y7SjaSMI43Iii-24" vertex="1">
          <mxGeometry y="360" width="140" height="30" as="geometry" />
        </mxCell>
        <mxCell id="xf_oXh0y7SjaSMI43Iii-233" value="numéro d&#39;inventaire" style="text;strokeColor=none;fillColor=none;align=left;verticalAlign=middle;spacingLeft=4;spacingRight=4;overflow=hidden;points=[[0,0.5],[1,0.5]];portConstraint=eastwest;rotatable=0;fontSize=14;" parent="xf_oXh0y7SjaSMI43Iii-24" vertex="1">
          <mxGeometry y="390" width="140" height="30" as="geometry" />
        </mxCell>
        <mxCell id="xf_oXh0y7SjaSMI43Iii-60" style="edgeStyle=orthogonalEdgeStyle;rounded=0;orthogonalLoop=1;jettySize=auto;html=1;entryX=0.5;entryY=0;entryDx=0;entryDy=0;fontSize=10;" parent="1" source="xf_oXh0y7SjaSMI43Iii-42" target="xf_oXh0y7SjaSMI43Iii-24" edge="1">
          <mxGeometry relative="1" as="geometry" />
        </mxCell>
        <mxCell id="xf_oXh0y7SjaSMI43Iii-61" value="1" style="edgeLabel;html=1;align=center;verticalAlign=middle;resizable=0;points=[];fontSize=10;labelBackgroundColor=none;" parent="xf_oXh0y7SjaSMI43Iii-60" vertex="1" connectable="0">
          <mxGeometry x="-0.8935" relative="1" as="geometry">
            <mxPoint x="10" y="4" as="offset" />
          </mxGeometry>
        </mxCell>
        <mxCell id="xf_oXh0y7SjaSMI43Iii-62" value="1..n" style="edgeLabel;html=1;align=center;verticalAlign=middle;resizable=0;points=[];fontSize=10;labelBackgroundColor=default;" parent="xf_oXh0y7SjaSMI43Iii-60" vertex="1" connectable="0">
          <mxGeometry x="0.8831" relative="1" as="geometry">
            <mxPoint x="11" y="-3" as="offset" />
          </mxGeometry>
        </mxCell>
        <mxCell id="xf_oXh0y7SjaSMI43Iii-63" value="émet" style="edgeLabel;html=1;align=center;verticalAlign=middle;resizable=0;points=[];fontSize=12;" parent="xf_oXh0y7SjaSMI43Iii-60" vertex="1" connectable="0">
          <mxGeometry x="-0.1143" relative="1" as="geometry">
            <mxPoint as="offset" />
          </mxGeometry>
        </mxCell>
        <mxCell id="xf_oXh0y7SjaSMI43Iii-78" style="edgeStyle=orthogonalEdgeStyle;rounded=0;orthogonalLoop=1;jettySize=auto;html=1;fontSize=10;entryX=0.116;entryY=-0.021;entryDx=0;entryDy=0;entryPerimeter=0;" parent="1" source="xf_oXh0y7SjaSMI43Iii-42" target="xf_oXh0y7SjaSMI43Iii-10" edge="1">
          <mxGeometry relative="1" as="geometry" />
        </mxCell>
        <mxCell id="xf_oXh0y7SjaSMI43Iii-79" value="1" style="edgeLabel;html=1;align=center;verticalAlign=bottom;resizable=0;points=[];fontSize=10;" parent="xf_oXh0y7SjaSMI43Iii-78" vertex="1" connectable="0">
          <mxGeometry x="-0.9478" y="2" relative="1" as="geometry">
            <mxPoint as="offset" />
          </mxGeometry>
        </mxCell>
        <mxCell id="xf_oXh0y7SjaSMI43Iii-80" value="1..n" style="edgeLabel;html=1;align=center;verticalAlign=middle;resizable=0;points=[];fontSize=10;" parent="xf_oXh0y7SjaSMI43Iii-78" vertex="1" connectable="0">
          <mxGeometry x="0.917" y="1" relative="1" as="geometry">
            <mxPoint x="13" y="6" as="offset" />
          </mxGeometry>
        </mxCell>
        <mxCell id="xf_oXh0y7SjaSMI43Iii-81" value="&lt;div style=&quot;font-size: 12px;&quot;&gt;&lt;font style=&quot;font-size: 12px;&quot;&gt;&lt;font style=&quot;font-size: 12px;&quot;&gt;émet&lt;/font&gt;&lt;/font&gt;&lt;/div&gt;&lt;div style=&quot;font-size: 12px;&quot;&gt;&lt;font style=&quot;font-size: 12px;&quot;&gt;&lt;font style=&quot;font-size: 12px;&quot;&gt;depuis&lt;/font&gt;&lt;/font&gt;&lt;/div&gt;" style="edgeLabel;html=1;align=center;verticalAlign=middle;resizable=0;points=[];fontSize=12;" parent="xf_oXh0y7SjaSMI43Iii-78" vertex="1" connectable="0">
          <mxGeometry x="0.1114" y="-1" relative="1" as="geometry">
            <mxPoint x="5" y="9" as="offset" />
          </mxGeometry>
        </mxCell>
        <mxCell id="xf_oXh0y7SjaSMI43Iii-42" value="émetteur" style="swimlane;fontStyle=0;childLayout=stackLayout;horizontal=1;startSize=30;horizontalStack=0;resizeParent=1;resizeParentMax=0;resizeLast=0;collapsible=1;marginBottom=0;fontSize=14;html=0;" parent="1" vertex="1">
          <mxGeometry x="40" y="40" width="140" height="120" as="geometry" />
        </mxCell>
        <mxCell id="xf_oXh0y7SjaSMI43Iii-43" value="Nom" style="text;strokeColor=none;fillColor=none;align=left;verticalAlign=middle;spacingLeft=4;spacingRight=4;overflow=hidden;points=[[0,0.5],[1,0.5]];portConstraint=eastwest;rotatable=0;fontSize=14;html=0;" parent="xf_oXh0y7SjaSMI43Iii-42" vertex="1">
          <mxGeometry y="30" width="140" height="30" as="geometry" />
        </mxCell>
        <mxCell id="xf_oXh0y7SjaSMI43Iii-52" value="date de début d&#39;émission" style="text;strokeColor=none;fillColor=none;align=left;verticalAlign=middle;spacingLeft=4;spacingRight=4;overflow=hidden;points=[[0,0.5],[1,0.5]];portConstraint=eastwest;rotatable=0;fontSize=14;html=0;" parent="xf_oXh0y7SjaSMI43Iii-42" vertex="1">
          <mxGeometry y="60" width="140" height="30" as="geometry" />
        </mxCell>
        <mxCell id="xf_oXh0y7SjaSMI43Iii-225" value="date de fin d&#39;émission" style="text;strokeColor=none;fillColor=none;align=left;verticalAlign=middle;spacingLeft=4;spacingRight=4;overflow=hidden;points=[[0,0.5],[1,0.5]];portConstraint=eastwest;rotatable=0;fontSize=14;html=0;" parent="xf_oXh0y7SjaSMI43Iii-42" vertex="1">
          <mxGeometry y="90" width="140" height="30" as="geometry" />
        </mxCell>
        <mxCell id="xf_oXh0y7SjaSMI43Iii-82" style="edgeStyle=orthogonalEdgeStyle;rounded=0;orthogonalLoop=1;jettySize=auto;html=1;entryX=0.5;entryY=0;entryDx=0;entryDy=0;fontSize=12;" parent="1" source="xf_oXh0y7SjaSMI43Iii-48" target="xf_oXh0y7SjaSMI43Iii-42" edge="1">
          <mxGeometry relative="1" as="geometry" />
        </mxCell>
        <mxCell id="xf_oXh0y7SjaSMI43Iii-83" value="nomme " style="edgeLabel;html=1;align=center;verticalAlign=middle;resizable=0;points=[];fontSize=12;" parent="xf_oXh0y7SjaSMI43Iii-82" vertex="1" connectable="0">
          <mxGeometry x="-0.1537" relative="1" as="geometry">
            <mxPoint as="offset" />
          </mxGeometry>
        </mxCell>
        <mxCell id="xf_oXh0y7SjaSMI43Iii-84" value="1..n" style="edgeLabel;html=1;align=center;verticalAlign=middle;resizable=0;points=[];fontSize=10;" parent="xf_oXh0y7SjaSMI43Iii-82" vertex="1" connectable="0">
          <mxGeometry x="-0.8698" y="-1" relative="1" as="geometry">
            <mxPoint x="11" as="offset" />
          </mxGeometry>
        </mxCell>
        <mxCell id="xf_oXh0y7SjaSMI43Iii-85" value="1" style="edgeLabel;html=1;align=center;verticalAlign=middle;resizable=0;points=[];fontSize=10;" parent="xf_oXh0y7SjaSMI43Iii-82" vertex="1" connectable="0">
          <mxGeometry x="0.7599" y="1" relative="1" as="geometry">
            <mxPoint x="9" y="4" as="offset" />
          </mxGeometry>
        </mxCell>
        <mxCell id="xf_oXh0y7SjaSMI43Iii-86" style="edgeStyle=orthogonalEdgeStyle;rounded=0;orthogonalLoop=1;jettySize=auto;html=1;entryX=0.5;entryY=0;entryDx=0;entryDy=0;fontSize=10;" parent="1" source="xf_oXh0y7SjaSMI43Iii-48" target="xf_oXh0y7SjaSMI43Iii-10" edge="1">
          <mxGeometry relative="1" as="geometry" />
        </mxCell>
        <mxCell id="xf_oXh0y7SjaSMI43Iii-88" value="0..n" style="edgeLabel;html=1;align=center;verticalAlign=bottom;resizable=0;points=[];fontSize=10;" parent="xf_oXh0y7SjaSMI43Iii-86" vertex="1" connectable="0">
          <mxGeometry x="-0.9728" y="-1" relative="1" as="geometry">
            <mxPoint as="offset" />
          </mxGeometry>
        </mxCell>
        <mxCell id="xf_oXh0y7SjaSMI43Iii-89" value="1" style="edgeLabel;html=1;align=center;verticalAlign=middle;resizable=0;points=[];fontSize=10;" parent="xf_oXh0y7SjaSMI43Iii-86" vertex="1" connectable="0">
          <mxGeometry x="0.9562" relative="1" as="geometry">
            <mxPoint x="10" y="3" as="offset" />
          </mxGeometry>
        </mxCell>
        <mxCell id="xf_oXh0y7SjaSMI43Iii-90" value="&lt;div style=&quot;font-size: 12px;&quot;&gt;&lt;font style=&quot;font-size: 12px;&quot;&gt;a pour&lt;/font&gt;&lt;/div&gt;&lt;div style=&quot;font-size: 12px;&quot;&gt;&lt;font style=&quot;font-size: 12px;&quot;&gt;territoire&lt;/font&gt;&lt;/div&gt;" style="edgeLabel;html=1;align=center;verticalAlign=middle;resizable=0;points=[];fontSize=10;" parent="xf_oXh0y7SjaSMI43Iii-86" vertex="1" connectable="0">
          <mxGeometry x="-0.1989" y="-1" relative="1" as="geometry">
            <mxPoint as="offset" />
          </mxGeometry>
        </mxCell>
        <mxCell id="xf_oXh0y7SjaSMI43Iii-48" value="Entité politique" style="swimlane;fontStyle=0;childLayout=stackLayout;horizontal=1;startSize=30;horizontalStack=0;resizeParent=1;resizeParentMax=0;resizeLast=0;collapsible=1;marginBottom=0;fontSize=14;html=0;" parent="1" vertex="1">
          <mxGeometry x="40" y="-200" width="140" height="150" as="geometry" />
        </mxCell>
        <mxCell id="xf_oXh0y7SjaSMI43Iii-49" value="nom" style="text;strokeColor=none;fillColor=none;align=left;verticalAlign=middle;spacingLeft=4;spacingRight=4;overflow=hidden;points=[[0,0.5],[1,0.5]];portConstraint=eastwest;rotatable=0;fontSize=14;html=0;" parent="xf_oXh0y7SjaSMI43Iii-48" vertex="1">
          <mxGeometry y="30" width="140" height="30" as="geometry" />
        </mxCell>
        <mxCell id="xf_oXh0y7SjaSMI43Iii-50" value="type de gouvernement" style="text;strokeColor=none;fillColor=none;align=left;verticalAlign=middle;spacingLeft=4;spacingRight=4;overflow=hidden;points=[[0,0.5],[1,0.5]];portConstraint=eastwest;rotatable=0;fontSize=14;html=0;" parent="xf_oXh0y7SjaSMI43Iii-48" vertex="1">
          <mxGeometry y="60" width="140" height="30" as="geometry" />
        </mxCell>
        <mxCell id="xf_oXh0y7SjaSMI43Iii-51" value="date de début" style="text;strokeColor=none;fillColor=none;align=left;verticalAlign=middle;spacingLeft=4;spacingRight=4;overflow=hidden;points=[[0,0.5],[1,0.5]];portConstraint=eastwest;rotatable=0;fontSize=14;html=0;" parent="xf_oXh0y7SjaSMI43Iii-48" vertex="1">
          <mxGeometry y="90" width="140" height="30" as="geometry" />
        </mxCell>
        <mxCell id="xf_oXh0y7SjaSMI43Iii-224" value="date de fin" style="text;strokeColor=none;fillColor=none;align=left;verticalAlign=middle;spacingLeft=4;spacingRight=4;overflow=hidden;points=[[0,0.5],[1,0.5]];portConstraint=eastwest;rotatable=0;fontSize=14;html=0;" parent="xf_oXh0y7SjaSMI43Iii-48" vertex="1">
          <mxGeometry y="120" width="140" height="30" as="geometry" />
        </mxCell>
        <mxCell id="xf_oXh0y7SjaSMI43Iii-119" style="edgeStyle=orthogonalEdgeStyle;rounded=0;orthogonalLoop=1;jettySize=auto;html=1;fontSize=14;" parent="1" source="xf_oXh0y7SjaSMI43Iii-107" target="xf_oXh0y7SjaSMI43Iii-10" edge="1">
          <mxGeometry relative="1" as="geometry">
            <mxPoint x="440" y="370" as="targetPoint" />
            <Array as="points">
              <mxPoint x="480" y="350" />
            </Array>
          </mxGeometry>
        </mxCell>
        <mxCell id="xf_oXh0y7SjaSMI43Iii-158" value="&lt;div&gt;se &lt;br&gt;&lt;/div&gt;&lt;div&gt;trouve à&lt;br&gt;&lt;/div&gt;" style="edgeLabel;html=1;align=center;verticalAlign=middle;resizable=0;points=[];fontSize=12;" parent="xf_oXh0y7SjaSMI43Iii-119" vertex="1" connectable="0">
          <mxGeometry x="0.1894" y="1" relative="1" as="geometry">
            <mxPoint as="offset" />
          </mxGeometry>
        </mxCell>
        <mxCell id="xf_oXh0y7SjaSMI43Iii-168" value="0..n" style="edgeLabel;html=1;align=center;verticalAlign=middle;resizable=0;points=[];fontSize=12;" parent="xf_oXh0y7SjaSMI43Iii-119" vertex="1" connectable="0">
          <mxGeometry x="-0.9026" y="-2" relative="1" as="geometry">
            <mxPoint x="8" y="7" as="offset" />
          </mxGeometry>
        </mxCell>
        <mxCell id="xf_oXh0y7SjaSMI43Iii-169" value="1" style="edgeLabel;html=1;align=center;verticalAlign=bottom;resizable=0;points=[];fontSize=12;" parent="xf_oXh0y7SjaSMI43Iii-119" vertex="1" connectable="0">
          <mxGeometry x="0.9196" relative="1" as="geometry">
            <mxPoint as="offset" />
          </mxGeometry>
        </mxCell>
        <mxCell id="xf_oXh0y7SjaSMI43Iii-144" style="edgeStyle=orthogonalEdgeStyle;rounded=0;orthogonalLoop=1;jettySize=auto;html=1;entryX=0.5;entryY=0;entryDx=0;entryDy=0;fontSize=12;" parent="1" source="xf_oXh0y7SjaSMI43Iii-107" target="xf_oXh0y7SjaSMI43Iii-140" edge="1">
          <mxGeometry relative="1" as="geometry" />
        </mxCell>
        <mxCell id="xf_oXh0y7SjaSMI43Iii-147" value="publie" style="edgeLabel;html=1;align=center;verticalAlign=middle;resizable=0;points=[];fontSize=12;" parent="xf_oXh0y7SjaSMI43Iii-144" vertex="1" connectable="0">
          <mxGeometry x="-0.1733" y="-1" relative="1" as="geometry">
            <mxPoint as="offset" />
          </mxGeometry>
        </mxCell>
        <mxCell id="xf_oXh0y7SjaSMI43Iii-165" value="0..1" style="edgeLabel;html=1;align=center;verticalAlign=middle;resizable=0;points=[];fontSize=12;" parent="xf_oXh0y7SjaSMI43Iii-144" vertex="1" connectable="0">
          <mxGeometry x="-0.8106" relative="1" as="geometry">
            <mxPoint x="10" as="offset" />
          </mxGeometry>
        </mxCell>
        <mxCell id="xf_oXh0y7SjaSMI43Iii-166" value="1" style="edgeLabel;html=1;align=center;verticalAlign=middle;resizable=0;points=[];fontSize=12;" parent="xf_oXh0y7SjaSMI43Iii-144" vertex="1" connectable="0">
          <mxGeometry x="0.8458" relative="1" as="geometry">
            <mxPoint x="10" as="offset" />
          </mxGeometry>
        </mxCell>
        <mxCell id="xf_oXh0y7SjaSMI43Iii-107" value="Organisation" style="swimlane;fontStyle=0;childLayout=stackLayout;horizontal=1;startSize=30;horizontalStack=0;resizeParent=1;resizeParentMax=0;resizeLast=0;collapsible=1;marginBottom=0;labelBackgroundColor=default;fontSize=14;html=0;" parent="1" vertex="1">
          <mxGeometry x="470" y="638" width="140" height="90" as="geometry" />
        </mxCell>
        <mxCell id="xf_oXh0y7SjaSMI43Iii-108" value="Nom" style="text;strokeColor=none;fillColor=none;align=left;verticalAlign=middle;spacingLeft=4;spacingRight=4;overflow=hidden;points=[[0,0.5],[1,0.5]];portConstraint=eastwest;rotatable=0;labelBackgroundColor=default;fontSize=14;html=0;" parent="xf_oXh0y7SjaSMI43Iii-107" vertex="1">
          <mxGeometry y="30" width="140" height="30" as="geometry" />
        </mxCell>
        <mxCell id="xf_oXh0y7SjaSMI43Iii-109" value="definition" style="text;strokeColor=none;fillColor=none;align=left;verticalAlign=middle;spacingLeft=4;spacingRight=4;overflow=hidden;points=[[0,0.5],[1,0.5]];portConstraint=eastwest;rotatable=0;labelBackgroundColor=default;fontSize=14;html=0;" parent="xf_oXh0y7SjaSMI43Iii-107" vertex="1">
          <mxGeometry y="60" width="140" height="30" as="geometry" />
        </mxCell>
        <mxCell id="xf_oXh0y7SjaSMI43Iii-130" style="edgeStyle=orthogonalEdgeStyle;rounded=0;orthogonalLoop=1;jettySize=auto;html=1;entryX=0.75;entryY=0;entryDx=0;entryDy=0;fontSize=14;" parent="1" source="xf_oXh0y7SjaSMI43Iii-123" target="xf_oXh0y7SjaSMI43Iii-15" edge="1">
          <mxGeometry relative="1" as="geometry" />
        </mxCell>
        <mxCell id="xf_oXh0y7SjaSMI43Iii-150" value="naissance de" style="edgeLabel;html=1;align=center;verticalAlign=middle;resizable=0;points=[];fontSize=12;" parent="xf_oXh0y7SjaSMI43Iii-130" vertex="1" connectable="0">
          <mxGeometry x="-0.2198" y="1" relative="1" as="geometry">
            <mxPoint as="offset" />
          </mxGeometry>
        </mxCell>
        <mxCell id="xf_oXh0y7SjaSMI43Iii-155" value="1" style="edgeLabel;html=1;align=center;verticalAlign=bottom;resizable=0;points=[];fontSize=12;" parent="xf_oXh0y7SjaSMI43Iii-130" vertex="1" connectable="0">
          <mxGeometry x="-0.888" y="-2" relative="1" as="geometry">
            <mxPoint as="offset" />
          </mxGeometry>
        </mxCell>
        <mxCell id="xf_oXh0y7SjaSMI43Iii-156" value="1..n" style="edgeLabel;html=1;align=center;verticalAlign=middle;resizable=0;points=[];fontSize=12;" parent="xf_oXh0y7SjaSMI43Iii-130" vertex="1" connectable="0">
          <mxGeometry x="0.896" y="1" relative="1" as="geometry">
            <mxPoint x="14" as="offset" />
          </mxGeometry>
        </mxCell>
        <mxCell id="xf_oXh0y7SjaSMI43Iii-132" style="edgeStyle=orthogonalEdgeStyle;rounded=0;orthogonalLoop=1;jettySize=auto;html=1;entryX=0.786;entryY=0;entryDx=0;entryDy=0;entryPerimeter=0;fontSize=14;" parent="1" source="xf_oXh0y7SjaSMI43Iii-123" target="xf_oXh0y7SjaSMI43Iii-10" edge="1">
          <mxGeometry relative="1" as="geometry" />
        </mxCell>
        <mxCell id="xf_oXh0y7SjaSMI43Iii-151" value="né à" style="edgeLabel;html=1;align=center;verticalAlign=middle;resizable=0;points=[];fontSize=12;" parent="xf_oXh0y7SjaSMI43Iii-132" vertex="1" connectable="0">
          <mxGeometry x="-0.001" relative="1" as="geometry">
            <mxPoint as="offset" />
          </mxGeometry>
        </mxCell>
        <mxCell id="xf_oXh0y7SjaSMI43Iii-170" value="0..n" style="edgeLabel;html=1;align=center;verticalAlign=bottom;resizable=0;points=[];fontSize=12;" parent="xf_oXh0y7SjaSMI43Iii-132" vertex="1" connectable="0">
          <mxGeometry x="-0.8913" y="2" relative="1" as="geometry">
            <mxPoint as="offset" />
          </mxGeometry>
        </mxCell>
        <mxCell id="xf_oXh0y7SjaSMI43Iii-171" value="1" style="edgeLabel;html=1;align=center;verticalAlign=middle;resizable=0;points=[];fontSize=12;" parent="xf_oXh0y7SjaSMI43Iii-132" vertex="1" connectable="0">
          <mxGeometry x="0.8657" y="-1" relative="1" as="geometry">
            <mxPoint x="11" y="4" as="offset" />
          </mxGeometry>
        </mxCell>
        <mxCell id="xf_oXh0y7SjaSMI43Iii-123" value="naissance" style="swimlane;fontStyle=0;childLayout=stackLayout;horizontal=1;startSize=30;horizontalStack=0;resizeParent=1;resizeParentMax=0;resizeLast=0;collapsible=1;marginBottom=0;labelBackgroundColor=default;fontSize=14;html=0;" parent="1" vertex="1">
          <mxGeometry x="480" y="-80" width="140" height="60" as="geometry">
            <mxRectangle x="480" y="55" width="100" height="30" as="alternateBounds" />
          </mxGeometry>
        </mxCell>
        <mxCell id="xf_oXh0y7SjaSMI43Iii-124" value="date" style="text;strokeColor=none;fillColor=none;align=left;verticalAlign=middle;spacingLeft=4;spacingRight=4;overflow=hidden;points=[[0,0.5],[1,0.5]];portConstraint=eastwest;rotatable=0;labelBackgroundColor=default;fontSize=14;html=0;" parent="xf_oXh0y7SjaSMI43Iii-123" vertex="1">
          <mxGeometry y="30" width="140" height="30" as="geometry" />
        </mxCell>
        <mxCell id="xf_oXh0y7SjaSMI43Iii-146" style="edgeStyle=orthogonalEdgeStyle;rounded=0;orthogonalLoop=1;jettySize=auto;html=1;fontSize=12;entryX=0;entryY=0.5;entryDx=0;entryDy=0;" parent="1" source="xf_oXh0y7SjaSMI43Iii-140" target="xf_oXh0y7SjaSMI43Iii-24" edge="1">
          <mxGeometry relative="1" as="geometry">
            <mxPoint x="60" y="430" as="targetPoint" />
            <Array as="points">
              <mxPoint x="20" y="890" />
              <mxPoint x="20" y="330" />
            </Array>
          </mxGeometry>
        </mxCell>
        <mxCell id="xf_oXh0y7SjaSMI43Iii-149" value="mentionne" style="edgeLabel;html=1;align=center;verticalAlign=middle;resizable=0;points=[];fontSize=12;" parent="xf_oXh0y7SjaSMI43Iii-146" vertex="1" connectable="0">
          <mxGeometry x="-0.167" relative="1" as="geometry">
            <mxPoint x="98" y="19" as="offset" />
          </mxGeometry>
        </mxCell>
        <mxCell id="xf_oXh0y7SjaSMI43Iii-162" value="1..n" style="edgeLabel;html=1;align=center;verticalAlign=bottom;resizable=0;points=[];fontSize=12;" parent="xf_oXh0y7SjaSMI43Iii-146" vertex="1" connectable="0">
          <mxGeometry x="-0.9784" y="1" relative="1" as="geometry">
            <mxPoint as="offset" />
          </mxGeometry>
        </mxCell>
        <mxCell id="xf_oXh0y7SjaSMI43Iii-164" value="1" style="edgeLabel;html=1;align=center;verticalAlign=bottom;resizable=0;points=[];fontSize=12;" parent="xf_oXh0y7SjaSMI43Iii-146" vertex="1" connectable="0">
          <mxGeometry x="0.9753" y="1" relative="1" as="geometry">
            <mxPoint as="offset" />
          </mxGeometry>
        </mxCell>
        <mxCell id="xf_oXh0y7SjaSMI43Iii-154" style="edgeStyle=orthogonalEdgeStyle;rounded=0;orthogonalLoop=1;jettySize=auto;html=1;fontSize=12;" parent="1" source="xf_oXh0y7SjaSMI43Iii-140" target="xf_oXh0y7SjaSMI43Iii-10" edge="1">
          <mxGeometry relative="1" as="geometry">
            <Array as="points">
              <mxPoint x="410" y="840" />
            </Array>
          </mxGeometry>
        </mxCell>
        <mxCell id="xf_oXh0y7SjaSMI43Iii-157" value="&lt;div&gt;est &lt;br&gt;&lt;/div&gt;&lt;div&gt;publié à&lt;br&gt;&lt;/div&gt;" style="edgeLabel;html=1;align=center;verticalAlign=middle;resizable=0;points=[];fontSize=12;" parent="xf_oXh0y7SjaSMI43Iii-154" vertex="1" connectable="0">
          <mxGeometry x="0.4574" relative="1" as="geometry">
            <mxPoint as="offset" />
          </mxGeometry>
        </mxCell>
        <mxCell id="xf_oXh0y7SjaSMI43Iii-163" value="1" style="edgeLabel;html=1;align=center;verticalAlign=bottom;resizable=0;points=[];fontSize=12;" parent="xf_oXh0y7SjaSMI43Iii-154" vertex="1" connectable="0">
          <mxGeometry x="-0.9568" y="2" relative="1" as="geometry">
            <mxPoint as="offset" />
          </mxGeometry>
        </mxCell>
        <mxCell id="xf_oXh0y7SjaSMI43Iii-167" value="0..1" style="edgeLabel;html=1;align=center;verticalAlign=middle;resizable=0;points=[];fontSize=12;" parent="xf_oXh0y7SjaSMI43Iii-154" vertex="1" connectable="0">
          <mxGeometry x="0.9698" y="2" relative="1" as="geometry">
            <mxPoint x="17" as="offset" />
          </mxGeometry>
        </mxCell>
        <mxCell id="xf_oXh0y7SjaSMI43Iii-140" value="ouvrage" style="swimlane;fontStyle=0;childLayout=stackLayout;horizontal=1;startSize=30;horizontalStack=0;resizeParent=1;resizeParentMax=0;resizeLast=0;collapsible=1;marginBottom=0;labelBackgroundColor=default;fontSize=12;html=0;" parent="1" vertex="1">
          <mxGeometry x="470" y="820" width="140" height="90" as="geometry" />
        </mxCell>
        <mxCell id="xf_oXh0y7SjaSMI43Iii-141" value="nom" style="text;strokeColor=none;fillColor=none;align=left;verticalAlign=middle;spacingLeft=4;spacingRight=4;overflow=hidden;points=[[0,0.5],[1,0.5]];portConstraint=eastwest;rotatable=0;labelBackgroundColor=default;fontSize=12;html=0;" parent="xf_oXh0y7SjaSMI43Iii-140" vertex="1">
          <mxGeometry y="30" width="140" height="30" as="geometry" />
        </mxCell>
        <mxCell id="xf_oXh0y7SjaSMI43Iii-152" value="date de parution" style="text;strokeColor=none;fillColor=none;align=left;verticalAlign=middle;spacingLeft=4;spacingRight=4;overflow=hidden;points=[[0,0.5],[1,0.5]];portConstraint=eastwest;rotatable=0;labelBackgroundColor=default;fontSize=12;html=0;" parent="xf_oXh0y7SjaSMI43Iii-140" vertex="1">
          <mxGeometry y="60" width="140" height="30" as="geometry" />
        </mxCell>
        <mxCell id="xf_oXh0y7SjaSMI43Iii-183" style="edgeStyle=orthogonalEdgeStyle;rounded=0;orthogonalLoop=1;jettySize=auto;html=1;fontSize=12;" parent="1" source="xf_oXh0y7SjaSMI43Iii-179" target="xf_oXh0y7SjaSMI43Iii-107" edge="1">
          <mxGeometry relative="1" as="geometry">
            <Array as="points">
              <mxPoint x="850" y="683" />
            </Array>
          </mxGeometry>
        </mxCell>
        <mxCell id="xf_oXh0y7SjaSMI43Iii-189" value="&lt;div&gt;prend&lt;/div&gt;&lt;div&gt;place à&lt;br&gt;&lt;/div&gt;" style="edgeLabel;html=1;align=center;verticalAlign=middle;resizable=0;points=[];fontSize=12;" parent="xf_oXh0y7SjaSMI43Iii-183" vertex="1" connectable="0">
          <mxGeometry x="-0.3248" relative="1" as="geometry">
            <mxPoint as="offset" />
          </mxGeometry>
        </mxCell>
        <mxCell id="xf_oXh0y7SjaSMI43Iii-194" value="0..n" style="edgeLabel;html=1;align=center;verticalAlign=middle;resizable=0;points=[];fontSize=12;" parent="xf_oXh0y7SjaSMI43Iii-183" vertex="1" connectable="0">
          <mxGeometry x="-0.9366" y="2" relative="1" as="geometry">
            <mxPoint x="18" as="offset" />
          </mxGeometry>
        </mxCell>
        <mxCell id="xf_oXh0y7SjaSMI43Iii-195" value="1" style="edgeLabel;html=1;align=center;verticalAlign=middle;resizable=0;points=[];fontSize=12;" parent="xf_oXh0y7SjaSMI43Iii-183" vertex="1" connectable="0">
          <mxGeometry x="0.9154" y="1" relative="1" as="geometry">
            <mxPoint y="-14" as="offset" />
          </mxGeometry>
        </mxCell>
        <mxCell id="xf_oXh0y7SjaSMI43Iii-185" style="edgeStyle=orthogonalEdgeStyle;rounded=0;orthogonalLoop=1;jettySize=auto;html=1;fontSize=12;" parent="1" source="xf_oXh0y7SjaSMI43Iii-179" target="xf_oXh0y7SjaSMI43Iii-15" edge="1">
          <mxGeometry relative="1" as="geometry">
            <Array as="points">
              <mxPoint x="860" y="240" />
            </Array>
          </mxGeometry>
        </mxCell>
        <mxCell id="xf_oXh0y7SjaSMI43Iii-187" value="&lt;div&gt;est poursuivie&lt;/div&gt;&lt;div&gt;part&lt;br&gt;&lt;/div&gt;" style="edgeLabel;html=1;align=center;verticalAlign=middle;resizable=0;points=[];fontSize=12;" parent="xf_oXh0y7SjaSMI43Iii-185" vertex="1" connectable="0">
          <mxGeometry x="-0.0368" y="2" relative="1" as="geometry">
            <mxPoint as="offset" />
          </mxGeometry>
        </mxCell>
        <mxCell id="xf_oXh0y7SjaSMI43Iii-190" value="0..n" style="edgeLabel;html=1;align=center;verticalAlign=middle;resizable=0;points=[];fontSize=12;" parent="xf_oXh0y7SjaSMI43Iii-185" vertex="1" connectable="0">
          <mxGeometry x="-0.8799" y="-1" relative="1" as="geometry">
            <mxPoint x="9" as="offset" />
          </mxGeometry>
        </mxCell>
        <mxCell id="xf_oXh0y7SjaSMI43Iii-191" value="1" style="edgeLabel;html=1;align=center;verticalAlign=bottom;resizable=0;points=[];fontSize=12;" parent="xf_oXh0y7SjaSMI43Iii-185" vertex="1" connectable="0">
          <mxGeometry x="0.8662" y="-1" relative="1" as="geometry">
            <mxPoint as="offset" />
          </mxGeometry>
        </mxCell>
        <mxCell id="xf_oXh0y7SjaSMI43Iii-186" style="edgeStyle=orthogonalEdgeStyle;rounded=0;orthogonalLoop=1;jettySize=auto;html=1;fontSize=12;" parent="1" source="xf_oXh0y7SjaSMI43Iii-179" target="xf_oXh0y7SjaSMI43Iii-19" edge="1">
          <mxGeometry relative="1" as="geometry" />
        </mxCell>
        <mxCell id="xf_oXh0y7SjaSMI43Iii-188" value="concerne" style="edgeLabel;html=1;align=center;verticalAlign=middle;resizable=0;points=[];fontSize=12;" parent="xf_oXh0y7SjaSMI43Iii-186" vertex="1" connectable="0">
          <mxGeometry x="-0.1068" y="2" relative="1" as="geometry">
            <mxPoint as="offset" />
          </mxGeometry>
        </mxCell>
        <mxCell id="xf_oXh0y7SjaSMI43Iii-192" value="0..n" style="edgeLabel;html=1;align=center;verticalAlign=bottom;resizable=0;points=[];fontSize=12;" parent="xf_oXh0y7SjaSMI43Iii-186" vertex="1" connectable="0">
          <mxGeometry x="-0.9274" relative="1" as="geometry">
            <mxPoint as="offset" />
          </mxGeometry>
        </mxCell>
        <mxCell id="xf_oXh0y7SjaSMI43Iii-193" value="1" style="edgeLabel;html=1;align=center;verticalAlign=middle;resizable=0;points=[];fontSize=12;" parent="xf_oXh0y7SjaSMI43Iii-186" vertex="1" connectable="0">
          <mxGeometry x="0.8965" y="-1" relative="1" as="geometry">
            <mxPoint x="9" as="offset" />
          </mxGeometry>
        </mxCell>
        <mxCell id="xf_oXh0y7SjaSMI43Iii-179" value="carrière" style="swimlane;fontStyle=0;childLayout=stackLayout;horizontal=1;startSize=30;horizontalStack=0;resizeParent=1;resizeParentMax=0;resizeLast=0;collapsible=1;marginBottom=0;labelBackgroundColor=default;fontSize=12;html=0;" parent="1" vertex="1">
          <mxGeometry x="820" y="390" width="140" height="90" as="geometry" />
        </mxCell>
        <mxCell id="xf_oXh0y7SjaSMI43Iii-180" value="date de début" style="text;strokeColor=none;fillColor=none;align=left;verticalAlign=middle;spacingLeft=4;spacingRight=4;overflow=hidden;points=[[0,0.5],[1,0.5]];portConstraint=eastwest;rotatable=0;labelBackgroundColor=default;fontSize=12;html=0;" parent="xf_oXh0y7SjaSMI43Iii-179" vertex="1">
          <mxGeometry y="30" width="140" height="30" as="geometry" />
        </mxCell>
        <mxCell id="xf_oXh0y7SjaSMI43Iii-222" value="date de fin" style="text;strokeColor=none;fillColor=none;align=left;verticalAlign=middle;spacingLeft=4;spacingRight=4;overflow=hidden;points=[[0,0.5],[1,0.5]];portConstraint=eastwest;rotatable=0;labelBackgroundColor=default;fontSize=12;html=0;" parent="xf_oXh0y7SjaSMI43Iii-179" vertex="1">
          <mxGeometry y="60" width="140" height="30" as="geometry" />
        </mxCell>
        <mxCell id="xf_oXh0y7SjaSMI43Iii-205" style="edgeStyle=orthogonalEdgeStyle;rounded=0;orthogonalLoop=1;jettySize=auto;html=1;fontSize=12;" parent="1" source="xf_oXh0y7SjaSMI43Iii-201" target="xf_oXh0y7SjaSMI43Iii-10" edge="1">
          <mxGeometry relative="1" as="geometry">
            <Array as="points">
              <mxPoint x="510" y="260" />
            </Array>
          </mxGeometry>
        </mxCell>
        <mxCell id="xf_oXh0y7SjaSMI43Iii-206" value="réside à" style="edgeLabel;html=1;align=center;verticalAlign=middle;resizable=0;points=[];fontSize=12;" parent="xf_oXh0y7SjaSMI43Iii-205" vertex="1" connectable="0">
          <mxGeometry x="-0.0256" y="-1" relative="1" as="geometry">
            <mxPoint as="offset" />
          </mxGeometry>
        </mxCell>
        <mxCell id="xf_oXh0y7SjaSMI43Iii-213" value="1" style="edgeLabel;html=1;align=center;verticalAlign=middle;resizable=0;points=[];fontSize=12;" parent="xf_oXh0y7SjaSMI43Iii-205" vertex="1" connectable="0">
          <mxGeometry x="0.8521" relative="1" as="geometry">
            <mxPoint y="-10" as="offset" />
          </mxGeometry>
        </mxCell>
        <mxCell id="xf_oXh0y7SjaSMI43Iii-214" value="1" style="edgeLabel;html=1;align=center;verticalAlign=middle;resizable=0;points=[];fontSize=12;" parent="xf_oXh0y7SjaSMI43Iii-205" vertex="1" connectable="0">
          <mxGeometry x="-0.8916" relative="1" as="geometry">
            <mxPoint x="10" as="offset" />
          </mxGeometry>
        </mxCell>
        <mxCell id="xf_oXh0y7SjaSMI43Iii-201" value="résidence" style="swimlane;fontStyle=0;childLayout=stackLayout;horizontal=1;startSize=30;horizontalStack=0;resizeParent=1;resizeParentMax=0;resizeLast=0;collapsible=1;marginBottom=0;labelBackgroundColor=default;fontSize=12;html=0;" parent="1" vertex="1">
          <mxGeometry x="480" y="25" width="140" height="90" as="geometry" />
        </mxCell>
        <mxCell id="xf_oXh0y7SjaSMI43Iii-202" value="date de début" style="text;strokeColor=none;fillColor=none;align=left;verticalAlign=middle;spacingLeft=4;spacingRight=4;overflow=hidden;points=[[0,0.5],[1,0.5]];portConstraint=eastwest;rotatable=0;labelBackgroundColor=default;fontSize=12;html=0;" parent="xf_oXh0y7SjaSMI43Iii-201" vertex="1">
          <mxGeometry y="30" width="140" height="30" as="geometry" />
        </mxCell>
        <mxCell id="xf_oXh0y7SjaSMI43Iii-203" value="date de fin" style="text;strokeColor=none;fillColor=none;align=left;verticalAlign=middle;spacingLeft=4;spacingRight=4;overflow=hidden;points=[[0,0.5],[1,0.5]];portConstraint=eastwest;rotatable=0;labelBackgroundColor=default;fontSize=12;html=0;" parent="xf_oXh0y7SjaSMI43Iii-201" vertex="1">
          <mxGeometry y="60" width="140" height="30" as="geometry" />
        </mxCell>
        <mxCell id="xf_oXh0y7SjaSMI43Iii-207" style="edgeStyle=orthogonalEdgeStyle;rounded=0;orthogonalLoop=1;jettySize=auto;html=1;fontSize=12;" parent="1" source="xf_oXh0y7SjaSMI43Iii-201" target="xf_oXh0y7SjaSMI43Iii-15" edge="1">
          <mxGeometry relative="1" as="geometry">
            <Array as="points">
              <mxPoint x="590" y="280" />
            </Array>
          </mxGeometry>
        </mxCell>
        <mxCell id="xf_oXh0y7SjaSMI43Iii-208" value="&lt;div&gt;réside&lt;/div&gt;&lt;div&gt;part&lt;/div&gt;" style="edgeLabel;html=1;align=center;verticalAlign=middle;resizable=0;points=[];fontSize=12;" parent="xf_oXh0y7SjaSMI43Iii-207" vertex="1" connectable="0">
          <mxGeometry y="-1" relative="1" as="geometry">
            <mxPoint as="offset" />
          </mxGeometry>
        </mxCell>
        <mxCell id="xf_oXh0y7SjaSMI43Iii-215" value="1" style="edgeLabel;html=1;align=center;verticalAlign=middle;resizable=0;points=[];fontSize=12;" parent="xf_oXh0y7SjaSMI43Iii-207" vertex="1" connectable="0">
          <mxGeometry x="-0.9203" relative="1" as="geometry">
            <mxPoint x="10" y="7" as="offset" />
          </mxGeometry>
        </mxCell>
        <mxCell id="xf_oXh0y7SjaSMI43Iii-216" value="1..n" style="edgeLabel;html=1;align=center;verticalAlign=middle;resizable=0;points=[];fontSize=12;" parent="xf_oXh0y7SjaSMI43Iii-207" vertex="1" connectable="0">
          <mxGeometry x="0.9203" y="1" relative="1" as="geometry">
            <mxPoint x="19" y="-12" as="offset" />
          </mxGeometry>
        </mxCell>
      </root>
    </mxGraphModel>
  </diagram>
</mxfile>
